<?xml version="1.0" encoding="utf-8"?>
<!-- Generator: Adobe Illustrator 16.0.0, SVG Export Plug-In . SVG Version: 6.00 Build 0)  -->
<!DOCTYPE svg PUBLIC "-//W3C//DTD SVG 1.1//EN" "http://www.w3.org/Graphics/SVG/1.1/DTD/svg11.dtd">
<svg version="1.1" id="Capa_1" xmlns="http://www.w3.org/2000/svg" xmlns:xlink="http://www.w3.org/1999/xlink" x="0px" y="0px"
	 width="800px" height="800px" viewBox="0 0 800 800" enable-background="new 0 0 800 800" xml:space="preserve">
<g>
	<path fill="#FFFFFF" d="M672.056,491.694c-7.894-46.628-25.792-89.216-43.598-127.857
		C574.946,245.893,510.513,138.779,447.09,39.651l-7.894-13.859C428.273,8.903,415.423,0,400.555,0
		c-21.845,0-35.704,19.825-39.651,25.792c0,0,0,0,0,1.01l-13.86,21.845c-24.781,39.651-50.573,81.321-75.355,122.9
		c-38.642,65.443-87.196,152.64-122.9,245.801c-11.933,30.748-22.763,61.496-23.773,95.181
		c-3.946,87.196,27.719,160.624,93.162,218.082C268.75,775.218,333.184,800,399.545,800l0,0
		c97.108,0,185.405-49.563,235.888-133.823C669.118,610.647,681.968,551.171,672.056,491.694z M603.675,647.361
		c-43.598,73.337-119.964,115.925-204.223,115.925c-57.457,0-113.997-20.836-157.595-59.478
		c-56.539-49.563-84.258-113.996-81.321-189.352c1.01-27.72,9.913-54.521,21.844-83.25
		c34.695-91.234,82.239-176.411,119.964-240.844c23.772-40.661,49.563-82.24,75.355-121.891l12.85-20.835
		c0-1.01,1.01-1.01,1.01-2.019c2.02-2.938,5.966-7.894,7.894-8.903c0,0,2.938,1.01,7.895,8.903l7.894,12.85
		c61.496,97.109,125.93,203.212,178.431,319.229c16.889,37.632,33.685,77.283,40.66,118.954
		C644.336,548.233,633.413,598.715,603.675,647.361z M417.26,669.114c0,9.913-7.895,17.806-17.807,17.806
		c-90.225,0-162.551-73.336-162.551-162.551c0-9.914,7.894-17.807,17.806-17.807c9.913,0,17.806,7.895,17.806,17.807
		c1.009,69.39,57.549,125.929,126.938,125.929C409.365,650.298,417.26,659.201,417.26,669.114z"/>
</g>
</svg>
